<svg xmlns="http://www.w3.org/2000/svg" width="768" height="768" viewBox="0 0 768 768"><path d="M672 640.5v-417c0-18-13.5-31.5-31.5-31.5h-282L396 321h61.5v-33H492v33h115.5v33H567c-10.5 40.5-33 79.5-61.5 112.5l87 85.5-22.5 24-87-85.5-28.5 28.5 25.5 88.5-64.5 64.5h225c18 0 31.5-13.5 31.5-31.5zm-225-252c7.5 15 19.5 34.5 36 54 39-46.5 49.5-88.5 49.5-88.5H405l10.5 34.5H447zm-24 24l19.5 70.5 18-16.5c-15-16.5-27-34.5-37.5-54zM355.5 339c0-7.381-.211-16.921-3-22.5h-126V366H297c-4.5 19.5-24 48-67.5 48-42 0-76.5-36-76.5-78s34.5-78 76.5-78c24 0 39 10.5 48 19.5l3 1.5 39-37.5-3-1.5c-24-22.5-54-34.5-87-34.5C157.5 205.5 99 264 99 336s58.5 130.5 130.5 130.5c73.5 0 126-52.5 126-127.5zm285-178.5c34.5 0 63 28.5 63 63v417c0 34.5-28.5 63-63 63H384l-31.5-96h-225c-34.5 0-63-28.5-63-63v-417c0-34.5 28.5-63 63-63h192l28.5 96h292.5z"/></svg>